<svg width="32" height="32" viewBox="0 0 32 32" fill="none" xmlns="http://www.w3.org/2000/svg">
<path id="profile_logo" fill-rule="evenodd" clip-rule="evenodd" d="M32 16C32 24.8365 24.8365 32 16 32C7.16345 32 0 24.8365 0 16C0 7.16345 7.16345 0 16 0C24.8365 0 32 7.16345 32 16ZM8.30017 27.2554C10.4912 28.7572 13.1429 29.6359 16 29.6359C18.4327 29.6359 20.7166 28.9988 22.694 27.8825C22.7417 26.9841 22.6207 26.084 22.3368 25.229C22.0311 24.3087 21.5427 23.4596 20.901 22.7326C20.2593 22.0056 19.4773 21.4156 18.6021 20.998C17.7269 20.5805 16.7764 20.3439 15.8075 20.3025C14.8386 20.2611 13.8713 20.4158 12.9637 20.7572C12.056 21.0986 11.2267 21.6198 10.5253 22.2894C9.82385 22.9591 9.26489 23.7635 8.88184 24.6543C8.52759 25.4782 8.33057 26.3604 8.30017 27.2554ZM5.41089 24.5918C3.50586 22.2468 2.36414 19.2567 2.36414 16C2.36414 8.46912 8.46912 2.36414 16 2.36414C23.5309 2.36414 29.6359 8.46912 29.6359 16C29.6359 19.6826 28.176 23.0242 25.8035 25.4778C25.7181 25.0428 25.6051 24.6126 25.4647 24.19C25.0192 22.8487 24.3074 21.6111 23.3721 20.5515C22.4366 19.4918 21.297 18.6319 20.0214 18.0233C18.7457 17.4147 17.3602 17.0699 15.9481 17.0096C14.536 16.9492 13.1262 17.1747 11.8033 17.6723C10.4805 18.1699 9.27161 18.9295 8.24927 19.9055C7.22693 20.8815 6.41223 22.0539 5.854 23.3524C5.68018 23.7567 5.53223 24.1707 5.41089 24.5918ZM21 11C21 13.7614 18.7615 16 16 16C13.2385 16 11 13.7614 11 11C11 8.23859 13.2385 6 16 6C18.7615 6 21 8.23859 21 11Z" fill="currentColor"/>
</svg>
